<?xml version="1.0" encoding="utf-8"?>
<!-- Generator: Adobe Illustrator 27.8.0, SVG Export Plug-In . SVG Version: 6.00 Build 0)  -->
<svg version="1.1" id="Layer_1" xmlns="http://www.w3.org/2000/svg" xmlns:xlink="http://www.w3.org/1999/xlink" x="0px" y="0px"
	 viewBox="0 0 600 94" style="enable-background:new 0 0 600 94;" xml:space="preserve">
<style type="text/css">
	.st0{fill:#55F3C7;}
</style>
<g>
	<path class="st0" d="M3.7,92.8c3.3-2.7,6.5-5.5,9.8-8.2c6.8-4.2,13.1-9.1,19.9-13.3C54,58.6,75.8,49,99.8,44.4
		c14.6-2.8,29.3-3.1,44.1-1.7c12.9,1.2,25.8,2.5,38.7,4.3c13.8,1.9,27.5,4.1,41.2,6.8c20.2,3.9,40.4,8.2,60.6,11.9
		c18.9,3.5,38,5.3,57.3,4.6c17.3-0.6,33.9-4.6,50.1-10.3c20.9-7.3,40.8-17,61.2-25.5c21.7-9,43.9-16.5,67.2-19.9
		c19.1-2.8,38.2-2.8,57.2,1.5c12.3,2.8,24.4,6.4,36.2,10.9c0.5,0.2,1.1,0.3,1.6,0.5c8.1,3.6,16.2,7.2,24.3,10.6
		c2.3,1,3.2,2.4,3.3,4.9c0.5,15.5,1.2,31.1,1.8,46.6c0.1,1.8-0.3,2.5-2.3,2.5c-9.1,0.3-18.3,0.8-27.4,1.1c-28.5,1.1-57,2.2-85.6,3.3
		c-0.6,0-1.3-0.2-1.8,0.5c-6.3,0-12.6,0-18.9-0.1c-167.1-1.4-334.3-2.7-501.4-4.1C6.1,92.9,4.9,92.8,3.7,92.8z M591.6,76
		c0.1-1.2-0.3-1.8-1.5-1.7c-0.9,0-1.3,0.7-1.3,1.8c0,1.7,0,2.1,0.4,1.9C590.4,77.5,592.7,78.1,591.6,76z"/>
	<path class="st0" d="M596.1,76.4c5,6.3-5.8,4.4-10.5,5.7c-1.9,0.5-1.8-0.6-2-5.5c-0.1-3.1,1.7-5.1,5.7-5.2
		C594.7,71.4,596.7,73.1,596.1,76.4z"/>
</g>
</svg>
