<?xml version="1.0" encoding="utf-8"?><svg enable-background="new 0 0 600.1 75.5" opacity=".55" viewBox="0 0 600.1 75.5" xmlns="http://www.w3.org/2000/svg"><path clip-rule="evenodd" d="m75.4 67.6c0 4.4-3.5 7.9-7.9 7.9h-59.6c-4.3 0-7.9-3.5-7.9-7.9v-59.7c0-4.3 3.5-7.9 7.9-7.9h59.7c4.3 0 7.9 3.5 7.9 7.9z" fill="#0d1355" fill-rule="evenodd"/><path clip-rule="evenodd" d="m37.7 21.8-25.3 25.3 5.9 5.9c.7.7 1.7.8 2.5 0 .7-.7 15.8-16 15.8-16 .8-.9 1.1-1.5 1.1-1.7.1.2.3.9 1.2 1.7 0 0 15.1 15.3 15.7 16 .8.8 1.8.7 2.6 0l5.9-5.9z" fill="#fff" fill-rule="evenodd"/><g fill="#0d1355"><path d="m480.7 63.4h-4.4c-.6 0-1.1.5-1.1 1.1v4.4c0 .6.5 1.1 1.1 1.1h4.4c.6 0 1.1-.5 1.1-1.1v-4.4c-.1-.6-.6-1.1-1.1-1.1"/><path d="m112.3 45.7c0 2 1.2 3.3 3.2 3.3h15.8c.6 0 1.3-.1 1.9-.2-.1.5-.1 1.2-.1 1.8v16.2c0 2 1.2 3.2 3.2 3.2h9.9v-33.7h-33.7v9.4z"/><path d="m95 8.8v58.1c0 2 1.2 3.1 3.2 3.1h9.8v-64.4h-9.8c-2.1 0-3.2 1.1-3.2 3.2"/><path d="m136.2 5.6c-2 0-3.2 1.2-3.2 3.2v20c0 2 1.2 3.2 3.2 3.2h9.9v-26.3h-9.9z"/><path d="m170.6 28.9c0-8 4-12.1 12-12.1 7.9 0 12 4.1 12 12.1v17.7c0 8-4 12.1-12 12.1-7.9 0-12-4.1-12-12.1zm12-24.3c-15.6 0-25 9.1-25 24.3v18c0 15.1 9.3 24 25 24 15.4 0 25-9.3 25-24.3v-18c-.1-14.8-9.6-24-25-24"/><path d="m257.3 5.6c-2 0-3.3 1.2-3.3 3.2v38.2c0 7.8-3.8 11.8-11.2 11.8s-11.1-4-11.1-11.8v-41.4h-9.9c-2 0-3.2 1.2-3.2 3.2v38.7c0 14.7 9 23.4 24.1 23.4 14.9 0 24.2-9 24.2-23.4v-41.9z"/><path d="m305 32.1c-10.8-4-13.8-5.6-13.8-9.5s3.2-6.2 8.5-6.2c4.5 0 7.4 1.7 9.2 5.7.6 1.3 1.5 1.9 2.6 1.9.5 0 1-.1 1.6-.3l8.3-3-.2-.7c-3.4-10.3-10.4-15.4-21.3-15.4-12.9 0-21.6 7.2-21.6 18 0 11.2 7.2 16 18.7 20.2 9.1 3.3 12.1 5.1 12.1 9.3s-3.6 6.9-9.2 6.9c-6 0-9.5-2.2-10.8-6.7-.6-1.7-1.8-2.1-2.7-2.1-.5 0-1 .1-1.5.3l-8.2 2.9.2.7c2.8 11.3 10.2 16.8 22.8 16.8 13.5 0 22.5-7.7 22.5-19.1-.1-9.3-5.4-15.3-17.2-19.7"/><path d="m335.7 5.6c-2 0-3.3 1.2-3.3 3.2v58.1c0 2 1.2 3.2 3.3 3.2h9.8v-64.4h-9.8z"/><path d="m400.3 5.6c-2 0-3.2 1.2-3.2 3.2v31.2c0 4.1.1 8.1.4 12.2-1.7-4.6-3.6-9.3-5.6-13.6l-15.8-32.9h-13.4c-2.1 0-3.4 1.3-3.4 3.4v57.8c0 2 1.2 3.2 3.3 3.2h9.4v-34.5c0-4.3-.1-8.4-.4-12.5 1.7 4.4 3.7 9.4 6 14.1l14.9 30.1c1 2 2.2 2.8 4.3 2.8h12.9v-64.4h-9.4z"/><path d="m445.7 33.6-.1 8.3c0 2 1.2 3.2 3.2 3.2h6.9c.7 0 1.3 0 1.8-.1-.1.5-.1 1-.1 1.5v2.9c0 5.9-4.1 9.3-11.2 9.3-7.9 0-12-4.1-12-12.3v-17.4c0-8.3 3.9-12.3 12-12.3 5.4 0 8.8 2.3 10.5 7 .7 1.8 2.2 2.4 4.1 1.7l8.8-3-.2-.7c-3.5-11.6-11-17.2-23.1-17.2h-.2c-15.5 0-24.8 9-24.8 24v18.2c0 15.1 9.3 24 25 24 14 0 23.8-9 23.8-22v-15.3h-24.4z"/><path d="m539.7 29.9c-9.6 0-15.4 5.6-15.4 15v11c0 9.3 5.7 14.8 15.4 14.8 9.6 0 15.4-5.6 15.4-15v-11c0-9.2-5.8-14.8-15.4-14.8m8.1 14.9v10.9c0 5.4-2.8 8.2-8.1 8.2s-8.1-2.8-8.1-8.2v-10.9c0-5.4 2.8-8.2 8.1-8.2s8.1 2.9 8.1 8.2"/><path d="m505.1 37.1c3.6 0 6 1.6 7.1 4.7.4.9 1.1 1.2 2.1.9l5.1-1.7-.3-.9c-2.3-6.5-6.9-9.6-14-9.6h-.3c-9.4 0-15.1 5.5-15.1 14.8v10.4c0 9.3 5.6 14.8 15.1 14.8h.3c7.1 0 11.7-3.2 14-9.6l.3-.9-5.1-1.7c-1-.3-1.7-.1-2.1.9-1.1 3.1-3.5 4.7-7.1 4.7-5.4 0-8.1-2.8-8.1-8.3v-9.9c0-5.8 2.7-8.6 8.1-8.6"/><path d="m593.9 30.8c-.8 0-1.5.5-1.8 1.2l-11.1 28-11.6-29.2h-5.4c-1.1 0-1.9.9-1.9 1.9v35.3c0 1.1.9 1.9 1.9 1.9h5v-21.4l7.8 20.1c.3.8 1 1.3 1.8 1.3h6.3l8.3-21.4v19.4c0 1.1.9 1.9 1.9 1.9h5v-39.2h-6.2z"/></g></svg>