<?xml version="1.0" encoding="utf-8"?>
<!-- Generator: Adobe Illustrator 24.0.3, SVG Export Plug-In . SVG Version: 6.00 Build 0)  -->
<svg version="1.1" id="Warstwa_1" opacity="0.6" xmlns="http://www.w3.org/2000/svg" xmlns:xlink="http://www.w3.org/1999/xlink"
	 x="0px" y="0px" viewBox="0 0 2565 481.5" style="enable-background:new 0 0 2565 481.5;" xml:space="preserve">
<style type="text/css">
	.st0{fill:#0D1355;}
</style>
<path class="st0" d="M2284.5,103.5H2256c-4.5,0-7.5,3-9,7.5l-61.5,165l-3,12l-3-12l-63-165c-1.5-4.5-4.5-7.5-9-7.5H2040
	c-3,0-6,1.5-6,6c0,1.5,0,3,3,9l112.5,258c-1.5,45-45,61.5-93,48c-7.5-1.5-12-3-19.5-3c-4.5,0-7.5,4.5-7.5,9V465
	c0,6,4.5,10.5,12,13.5c10.5,3,18,3,25.5,3c48,0,91.5-33,106.5-73.5L2286,117c1.5-3,3-6,3-7.5
	C2290.5,106.5,2287.5,103.5,2284.5,103.5z M1051.5,163.5c0-40.5,76.5-36,121.5-6c3,3,9,4.5,12,4.5c6,0,9-3,9-10.5V132
	c0-7.5-1.5-13.5-9-16.5c-79.5-33-186-15-186,70.5c0,97.5,154.5,78,154.5,130.5c0,42-73.5,46.5-126,6c-3-3-7.5-4.5-12-4.5
	c-6,0-10.5,3-10.5,10.5v24c0,7.5,1.5,12,9,16.5c67.5,30,193.5,31.5,193.5-81C1207.5,190.5,1051.5,211.5,1051.5,163.5z M1186.5,115.5
	C1186.5,117,1188,117,1186.5,115.5C1188,117,1186.5,115.5,1186.5,115.5z M415.5,97.5c-33,0-70.5,7.5-96,19.5c-7.5,3-9,9-9,15v27
	c0,9,7.5,12,10.5,12c7.5,0,13.5-7.5,16.5-9c22.5-15,45-25.5,75-25.5c37.5,0,43.5,24,43.5,54c0,13.5-4.5,18-58.5,24
	C364.5,219,291,234,291,300c0,55.5,43.5,84,96,84c28.5,0,51-12,70.5-30l1.5,16.5c0,4.5,3,7.5,6,7.5h55.5c4.5,0,7.5-3,7.5-7.5v-189
	C528,132,501,97.5,415.5,97.5z M456,319.5c0,7.5-21,30-49.5,30c-33,0-45-22.5-45-46.5c0-33,25.5-64.5,94.5-64.5V319.5z M64.5,85.5
	c0-28.5,27-48,61.5-48c30,0,54,10.5,78,28.5c6,4.5,10.5,7.5,16.5,7.5s9-4.5,9-10.5V27c0-6-1.5-9-6-10.5C202.5,9,166.5,0,126,0
	C45,0,0,51,0,108c0,124.5,192,99,192,183c0,51-73.5,87-159,27c-7.5-6-12-9-16.5-9c-10.5,0-12,6-12,10.5V351c0,6,1.5,9,7.5,12
	c103.5,48,250.5,19.5,250.5-103.5C259.5,148.5,64.5,156,64.5,85.5z M1393.5,100.5c-42,0-69,21-81,31.5V10.5c0-4.5-3-7.5-7.5-7.5
	h-58.5c-3,0-6,3-6,7.5V327c0,10.5,1.5,21,10.5,28.5c21,16.5,54,31.5,97.5,31.5c81,0,147-63,147-157.5
	C1497,156,1456.5,100.5,1393.5,100.5z M1354.5,354c-18,0-27-3-33-7.5c-7.5-4.5-9-10.5-9-16.5V165c9-6,25.5-19.5,48-19.5
	c55.5,0,61.5,72,61.5,97.5C1422,313.5,1393.5,354,1354.5,354z M646.5,105H588c-3,0-6,3-6,7.5v261c0,4.5,3,7.5,6,7.5h58.5
	c4.5,0,7.5-3,7.5-7.5v-261C654,108,649.5,105,646.5,105z M616.5,0c-27,0-40.5,16.5-40.5,34.5C576,57,592.5,72,616.5,72
	s39-15,39-37.5C654,15,642,0,616.5,0z M1771.5,103.5H1713c-3,0-6,3-6,7.5v178.5c0,40.5-12,61.5-51,61.5c-31.5,0-49.5-18-49.5-46.5
	V111c0-4.5-3-7.5-7.5-7.5h-58.5c-3,0-6,3-6,7.5v178.5c0,69,61.5,94.5,121.5,94.5c61.5,0,123-25.5,123-102V111
	C1779,106.5,1776,103.5,1771.5,103.5z M2004,102h3C2005.5,102,2004,102,2004,102z M2004,102c-12-3-19.5-3-27-3
	c-34.5,0-61.5,28.5-73.5,45l-1.5-33c0-4.5-3-7.5-7.5-7.5h-57c-3,0-6,3-6,7.5v259.5c0,4.5,3,7.5,6,7.5h58.5c4.5,0,7.5-3,7.5-7.5v-165
	c0-52.5,49.5-54,84-48c7.5,1.5,13.5,4.5,21,4.5c4.5,0,7.5-4.5,7.5-9v-39C2016,109.5,2011.5,103.5,2004,102z M874.5,97.5
	c-34.5,0-69,16.5-88.5,27l-1.5-13.5c0-4.5-3-7.5-7.5-7.5h-57c-3,0-6,3-6,7.5v261c0,4.5,3,7.5,6,7.5h58.5c4.5,0,7.5-3,7.5-7.5V162
	c12-7.5,36-19.5,57-19.5c40.5,0,43.5,24,43.5,45V372c0,4.5,3,7.5,6,7.5H951c4.5,0,7.5-3,7.5-7.5V181.5C960,132,933,97.5,874.5,97.5z
	 M2541,115.5C2541,115.5,2541,117,2541,115.5C2541,117,2541,117,2541,115.5z M2406,163.5c0-40.5,76.5-36,121.5-6c3,3,9,4.5,12,4.5
	c6,0,10.5-3,10.5-10.5V132c0-7.5-1.5-13.5-9-16.5c-79.5-33-186-15-186,70.5c0,97.5,154.5,78,154.5,130.5c0,42-73.5,46.5-126,6
	c-3-3-7.5-4.5-12-4.5c-6,0-9,3-9,10.5v24c0,7.5,1.5,12,9,16.5c67.5,30,193.5,31.5,193.5-81C2562,190.5,2406,211.5,2406,163.5z
	 M2349,1.5h-28.5c-6,0-7.5,4.5-7.5,9c0,7.5,18,25.5,18,51s-10.5,34.5-10.5,43.5c0,3,3,6,7.5,6h13.5C2370,111,2403,1.5,2349,1.5z"/>
</svg>
