<?xml version="1.0" encoding="utf-8"?><svg enable-background="new 0 0 364.4 86.9" viewBox="0 0 364.4 86.9" xmlns="http://www.w3.org/2000/svg"><g fill="#fff"><path d="m45.4 86.9c-22.1 0-33.7-4.8-39.8-13-3-4.2-5.2-9.6-5.6-15h15.9c.3 2.5 1.1 5.2 2.6 7.2 3.6 4.5 11.1 6.6 26 6.6 18.8 0 24.3-4.2 24.3-10.7 0-7-4.6-9.5-21.5-11.8-3.5-.5-10.9-1.4-14.5-1.9-22.3-2.6-31.7-10.1-31.7-23.8 0-13.5 12-24.2 40.1-24.2 23.7 0 33.4 6.1 38.9 17.4 1.5 3 2.1 6.3 2.5 9.2h-16.1c-.2-1.5-.8-3.3-1.6-4.7-2.8-5-8.9-7.8-24.6-7.8-18.6 0-23.9 3.5-23.9 9.5 0 6.2 5.5 8.6 23.9 10.8 4.1.5 12.1 1.7 15.3 2.1 20.3 2.8 28.8 10.1 28.8 24 0 16.2-12.5 26.1-39 26.1z"/><path d="m133.6 86.7c-24.2 0-40.2-10.5-40.2-33.3 0-2.5 0-51.9 0-51.9h14.9v52.2c0 11.3 8.5 18.7 25.9 18.7 15.1 0 25-6.7 25-18.6 0-1.2 0-52.3 0-52.3h14.8v53.5c0 20.8-15.1 31.7-40.4 31.7z"/><path d="m228 86.9c-22.1 0-33.7-4.8-39.8-13-2.9-4.1-5.1-9.5-5.5-14.9h15.9c.3 2.5 1.1 5.2 2.6 7.2 3.6 4.5 11.1 6.6 26 6.6 18.8 0 24.3-4.2 24.3-10.7 0-7-4.6-9.5-21.5-11.8-3.5-.5-10.9-1.4-14.5-1.9-22.3-2.7-31.7-10.2-31.7-23.9 0-13.5 12-24.2 40.1-24.2 23.7 0 33.4 6.1 38.9 17.4 1.5 3 2.1 6.3 2.5 9.2h-16.1c-.2-1.5-.8-3.3-1.6-4.7-2.8-5-8.9-7.8-24.6-7.8-18.6 0-23.9 3.5-23.9 9.5 0 6.2 5.5 8.6 23.9 10.8 4.1.5 12.1 1.7 15.3 2.1 20.3 2.8 28.8 10.1 28.8 24-.1 16.2-12.6 26.1-39.1 26.1z"/><path d="m355.4 13.8c6.4 7.2 9 16.7 9 29.4 0 12.9-3.2 22.8-9.1 29.8-7.5 9.2-20.2 13.8-37 13.8-16.4 0-28.3-4.8-36.2-13.5-6.4-7.1-10-17-10-30.2 0-12 2.8-21.5 9.1-28.8 8.3-9.7 19.9-14.4 37-14.4 17.2.1 29 4.7 37.2 13.9zm-12.4 50.1c4.5-4.5 6.3-12.1 6.3-20.4s-1.7-16.2-6.2-20.4c-5.4-5.3-12.6-8.6-24.8-8.6-11.8 0-19.8 3.4-24.7 8.8-4.2 4.4-6.2 11.9-6.2 20.2 0 9.2 2.3 16.6 7.6 21.4 5.5 5.1 12.7 7.7 23.5 7.7 11.5-.1 18.9-3 24.5-8.7z"/></g></svg>