<?xml version="1.0" encoding="utf-8"?>
<!-- Generator: Adobe Illustrator 24.0.3, SVG Export Plug-In . SVG Version: 6.00 Build 0)  -->
<svg version="1.1" id="Layer_1" xmlns="http://www.w3.org/2000/svg" xmlns:xlink="http://www.w3.org/1999/xlink" x="0px" y="0px"
	 viewBox="0 0 364.4 86.9" style="enable-background:new 0 0 364.4 86.9;" xml:space="preserve">
<style type="text/css">
	.st0{fill:#3F50FF;}
</style>
<g>
	<path class="st0" d="M45.4,86.9c-22.1,0-33.7-4.8-39.8-13C2.6,69.7,0.4,64.3,0,58.9h15.9c0.3,2.5,1.1,5.2,2.6,7.2
		c3.6,4.5,11.1,6.6,26,6.6c18.8,0,24.3-4.2,24.3-10.7c0-7-4.6-9.5-21.5-11.8c-3.5-0.5-10.9-1.4-14.5-1.9
		C10.5,45.7,1.1,38.2,1.1,24.5c0-13.5,12-24.2,40.1-24.2c23.7,0,33.4,6.1,38.9,17.4c1.5,3,2.1,6.3,2.5,9.2H66.5
		c-0.2-1.5-0.8-3.3-1.6-4.7c-2.8-5-8.9-7.8-24.6-7.8c-18.6,0-23.9,3.5-23.9,9.5c0,6.2,5.5,8.6,23.9,10.8c4.1,0.5,12.1,1.7,15.3,2.1
		c20.3,2.8,28.8,10.1,28.8,24C84.4,77,71.9,86.9,45.4,86.9z"/>
	<path class="st0" d="M133.6,86.7c-24.2,0-40.2-10.5-40.2-33.3c0-2.5,0-51.9,0-51.9h14.9c0,0,0,50.9,0,52.2
		c0,11.3,8.5,18.7,25.9,18.7c15.1,0,25-6.7,25-18.6c0-1.2,0-52.3,0-52.3H174c0,0,0,51.3,0,53.5C174,75.8,158.9,86.7,133.6,86.7z"/>
	<path class="st0" d="M228,86.9c-22.1,0-33.7-4.8-39.8-13c-2.9-4.1-5.1-9.5-5.5-14.9h15.9c0.3,2.5,1.1,5.2,2.6,7.2
		c3.6,4.5,11.1,6.6,26,6.6c18.8,0,24.3-4.2,24.3-10.7c0-7-4.6-9.5-21.5-11.8c-3.5-0.5-10.9-1.4-14.5-1.9
		c-22.3-2.7-31.7-10.2-31.7-23.9c0-13.5,12-24.2,40.1-24.2c23.7,0,33.4,6.1,38.9,17.4c1.5,3,2.1,6.3,2.5,9.2h-16.1
		c-0.2-1.5-0.8-3.3-1.6-4.7c-2.8-5-8.9-7.8-24.6-7.8c-18.6,0-23.9,3.5-23.9,9.5c0,6.2,5.5,8.6,23.9,10.8c4.1,0.5,12.1,1.7,15.3,2.1
		c20.3,2.8,28.8,10.1,28.8,24C267,77,254.5,86.9,228,86.9z"/>
	<path class="st0" d="M355.4,13.8c6.4,7.2,9,16.7,9,29.4c0,12.9-3.2,22.8-9.1,29.8c-7.5,9.2-20.2,13.8-37,13.8
		c-16.4,0-28.3-4.8-36.2-13.5c-6.4-7.1-10-17-10-30.2c0-12,2.8-21.5,9.1-28.8c8.3-9.7,19.9-14.4,37-14.4
		C335.4,0,347.2,4.6,355.4,13.8z M343,63.9c4.5-4.5,6.3-12.1,6.3-20.4c0-8.3-1.7-16.2-6.2-20.4c-5.4-5.3-12.6-8.6-24.8-8.6
		c-11.8,0-19.8,3.4-24.7,8.8c-4.2,4.4-6.2,11.9-6.2,20.2c0,9.2,2.3,16.6,7.6,21.4c5.5,5.1,12.7,7.7,23.5,7.7
		C330,72.5,337.4,69.6,343,63.9z"/>
</g>
<g>
</g>
<g>
</g>
<g>
</g>
<g>
</g>
<g>
</g>
<g>
</g>
<g>
</g>
<g>
</g>
<g>
</g>
<g>
</g>
<g>
</g>
<g>
</g>
<g>
</g>
<g>
</g>
<g>
</g>
</svg>
