<?xml version="1.0" encoding="utf-8"?><svg enable-background="new 0 0 353 106.3" opacity=".5" viewBox="0 0 353 106.3" xmlns="http://www.w3.org/2000/svg"><g fill="#0d1355"><path d="m211.5 42.5 12.1-17.5c.1-.1.1-.1.2-.1h21.7c.2 0 .3-.1.3-.3 0-.5.1-1.1.1-1.6.1-12.6-10.2-22.9-22.8-23-12.6-.1-22.9 10.2-23 22.8 0 8 4.2 15.5 11 19.7z"/><path d="m294.6 28.5-17.1 24.7c-.1.1-.1.3.1.4h.2 34.4c.2 0 .3-.1.3-.3 0-.1 0-.1 0-.1l-17.5-24.7c-.1-.2-.3-.2-.4 0 0-.1 0-.1 0 0z"/><path d="m206.9 62.9h-4.2c-.2 0-.3-.1-.3-.3v-.1l23.7-34.2c.1-.1.1-.1.2-.1h63.4c.2 0 .3.1.3.3 0 .1 0 .1-.1.2l-14.9 21.4-8.8 12.7c-.1.1-.1.1-.2.1z"/><path d="m66.9 105.2h-9.5c-.2 0-.3-.1-.3-.3v-2.4c0-.2-.1-.3-.3-.3-.1 0-.2 0-.2.1-2 2.7-5.8 4-9.4 4-10.6 0-16.8-8.3-16.8-17.9 0-10.9 7.9-17.8 16.8-17.8 4.9 0 7.8 2.1 9.4 4 .1.1.3.1.4 0s.1-.1.1-.2v-2.4c0-.1.1-.3.3-.3h9.4c.2 0 .3.1.3.3v32.8c0 .2-.1.3-.2.4zm-26.4-16.6c0 3.1 2.3 8.4 8.3 8.4 2.8.1 5.5-1.3 7-3.7.8-1.3 1.3-2.8 1.4-4.3s-.2-3-.8-4.4c-1.3-3-4.3-4.8-7.6-4.6-5.7 0-8.3 4.8-8.3 8.6z"/><path d="m88.5 81.2c-.1 0-.3-.1-.3-.2-.1-.8-.4-2.3-3.1-2.3-2.1 0-2.8 1.3-2.8 2.2 0 1.5 2.5 2.5 5.1 3.3 5.7 1.6 11.7 3.2 11.7 10.5s-6.2 11.7-13.6 11.7c-5 0-12.5-2.2-13.6-10.7 0-.2.1-.3.3-.3h9.4c.1 0 .2.1.3.2.4 1.7 2 3 3.8 2.8 1.7 0 3.5-1 3.5-2.6 0-2.3-2.5-2.6-8.8-5.1-4.3-1.4-7.9-4.2-7.9-8.7 0-6.9 6-11.3 12.9-11.3 4.3 0 11.8 1.7 12.8 10.2 0 .2-.1.3-.3.3z"/><path d="m138.2 105.2h-9.4c-.2 0-.3-.1-.3-.3v-2.4c0-.2-.1-.3-.3-.3-.1 0-.2 0-.2.1-2 2.7-5.8 4-9.4 4-10.6 0-16.8-8.3-16.8-17.9 0-10.9 7.9-17.8 16.8-17.8 4.9 0 7.8 2.1 9.4 4 .1.1.3.1.4 0s.1-.1.1-.2v-2.4c0-.2.1-.3.3-.3h9.4c.1 0 .3.1.3.3v32.8c0 .2-.1.4-.3.4zm-26.3-16.6c0 3.1 2.3 8.4 8.3 8.4 2.8.1 5.5-1.3 7-3.7.8-1.3 1.3-2.8 1.4-4.3s-.2-3-.8-4.4c-1.3-3-4.3-4.8-7.6-4.6-5.8 0-8.3 4.8-8.3 8.6z"/><path d="m146.1 71.8h8.8c.1 0 .3.1.3.3v2.3c0 .2.1.3.3.3.1 0 .2 0 .2-.1.4-.6 1-1.1 1.5-1.6 2.1-1.6 4.7-2.5 7.3-2.3 2.9-.1 5.7 1.1 7.6 3.2.7.7 1.3 1.5 1.8 2.4.1.1.3.2.4.1 0 0 .1 0 .1-.1.6-.9 1.3-1.8 2.2-2.5 2.2-2 5.2-3.1 8.2-3.1 3.3-.1 6.4 1.1 8.8 3.4 3.1 3.3 3.6 5.5 3.6 12.9v18c0 .2-.1.3-.3.3h-9.4c-.2 0-.3-.1-.3-.3v-17.5c.1-1.6-.1-3.2-.7-4.7-.6-1.6-1.9-2.7-4.4-2.7-2.8 0-4.1 1.3-4.8 2.8-.5 1.3-.8 2.7-.7 4.2v18c0 .2-.1.3-.3.3h-9.4c-.2 0-.3-.1-.3-.3v-18.1c.1-1.4-.1-2.8-.6-4.2-.7-1.8-2.5-3-4.4-2.8-2.8 0-4.2 1.3-4.9 3-.5 1.4-.8 2.9-.7 4.4v17.5c0 .2-.1.3-.3.3h-9.4c-.2 0-.3-.1-.3-.3v-32.8c-.2-.2-.1-.3.1-.3z"/><path d="m233.1 105.2h-8.8c-.2 0-.3-.1-.3-.3v-2.4c0-.2-.1-.3-.3-.3-.1 0-.2 0-.2.1-1.3 1.7-3.5 4-8.8 4-11.3 0-12.4-9.1-12.4-13.7v-20.5c0-.2.1-.3.3-.3h9.4c.2 0 .3.1.3.3v17.9c0 3.7.8 6.9 5.3 6.9 5 0 5.8-3.6 5.8-7v-17.8c0-.2.1-.3.3-.3h9.4c.2 0 .3.1.3.3v32.8c0 .1-.2.3-.3.3z"/><path d="m240.9 71.8h8.8c.2 0 .3.1.3.3v2.4c0 .2.1.3.3.3.1 0 .2 0 .2-.1 1.3-1.7 3.5-4 8.7-4 11.2 0 12.4 9.2 12.4 13.7v20.6c0 .2-.1.3-.3.3h-9.4c-.2 0-.3-.1-.3-.3v-18c0-3.7-.8-6.9-5.2-6.9-4.9 0-5.7 3.6-5.7 7v17.9c0 .2-.1.3-.3.3h-9.4c-.2 0-.3-.1-.3-.3v-32.9c-.1-.2 0-.3.2-.3z"/><path d="m312.1 105.2h-8.9c-.2 0-.3-.1-.3-.3v-2.4c0-.2-.1-.3-.3-.3-.1 0-.2 0-.2.1-1.2 1.6-3.8 4-9.6 4-10.1 0-16.7-7.8-16.7-17.9 0-11.3 8.1-17.8 16.5-17.8 3.5-.1 6.8 1.1 9.3 3.5.1.1.3.1.4 0s.1-.1.1-.2v-13.9c0-.2.1-.3.3-.3h9.4c.2 0 .3.1.3.3v45c-.1.1-.2.2-.3.2zm-26.1-16.8c-.2 4.5 3.3 8.3 7.8 8.5h.6c2.3 0 4.5-.9 6.2-2.5 3.2-3.4 3.1-8.7-.1-12.1-1.6-1.5-3.7-2.4-6-2.3-4.5-.2-8.3 3.4-8.5 7.9z"/><path d="m317 88.4c0-8.1 5.8-17.7 18-17.7s18 9.6 18 17.8-5.8 17.7-18 17.7-18-9.6-18-17.8zm10 .1c0 4.7 3.8 8.4 8.5 8.4s8.4-3.8 8.4-8.5-3.8-8.4-8.5-8.4c-4.6 0-8.4 3.8-8.4 8.5z"/><path d="m24 94.3c-.1-.1-.3-.1-.4 0-1.5 1.7-3.7 2.7-6 2.6-4.8 0-7.9-3.6-7.9-8.5-.1-2.2.7-4.4 2.2-6.1 1.5-1.6 3.6-2.5 5.8-2.3 2.2-.1 4.4.8 5.8 2.4.1.1.3.1.4 0l5.3-7.2c.1-.1.1-.3 0-.4-3.3-2.8-7.6-4.3-11.9-4.3-9.8.4-17.6 8.6-17.3 18.5.3 9.5 8 17.1 17.5 17.3 4.4 0 8.6-1.5 11.9-4.4.1-.1.1-.3 0-.4z"/></g></svg>