<?xml version="1.0" encoding="utf-8"?><svg id="Ahrefs_logo" data-name="Ahrefs logo" xmlns="http://www.w3.org/2000/svg" viewBox="0 0 524.41 127.56" opacity=".5"><defs><style>.cls-1{fill:#0D1355;}</style></defs><title>Ahrefs-Logo-Mono-Black_on_white-CMYK</title><path class="cls-1" d="M467.72,113.37l28.34,0V99.21H481.89V85l-14.17,0V70.82H453.54V42.57l14.18-.13V28.37l42.52.06V42.51H481.89V56.69h14.17V70.88l14.06.05V85.11l14.29,0v28.26l-14.17,0-.12,14.19h-42.4ZM453.54,99.31H467.6v14.07l-14.06,0Zm56.81-56.69,14.06,0V56.64l-14.06,0Zm-113.5-.1H382.68V28.35h14.17V14.27l14.17-.1V.1L453.54,0V14.07l-28.34.1V28.35h14.17V42.52H425.2v85H396.85ZM368.5,85V42.52H354.33V28.35H297.64V42.52H283.46v70.87h14.18v14.17h56.69V113.39H311.81V85ZM311.81,42.52h28.35V70.87H311.81Zm56.69,70.87H354.33V99.21H368.5Zm-170.07-85h28.34V42.52h14.17V28.35h28.35V56.69H226.77v70.87H198.43ZM99.21,0h28.35V28.35h42.52V42.52h14.17v85H155.91v-85H127.56v85H99.21Zm-85,70.87H56.69V42.52H14.17V28.35h56.7V42.52H85v85H14.19V113.37H0V85H14.17ZM28.35,85v28.35H56.69V85ZM0,42.52H14.17V56.69H0Z"/></svg>