<?xml version="1.0" encoding="utf-8"?><svg enable-background="new 0 0 250 24.8" viewBox="0 0 250 24.8" xmlns="http://www.w3.org/2000/svg" opacity=".5"><g fill="#0d1355"><path d="m173.1 4.5h-22.3l-5.8 15.8h4.3l4.3-12h5.4c.6 0 .9.5.7 1.1l-3.9 10.9h4.3l3.9-10.9c.2-.6.9-1.1 1.5-1.1h4.3c.6 0 .9.5.7 1.1l-3.9 10.9h4.3l4.5-12.5c1-1.8-.2-3.3-2.3-3.3z"/><path d="m203.5 15.4c-.2.6-.9 1.1-1.5 1.1h-5.4c-.6 0-.9-.5-.7-1.1l3.9-10.9h-4.3l-4.6 12.5c-.6 1.8.5 3.2 2.6 3.2h9.8c1.5 0 3.1-1 3.5-2.2l4.9-13.6h-4.3z"/><path d="m130.9 15.4.4-1.1h13.1l1.4-3.8 1-2.7c.6-1.8-.5-3.2-2.6-3.2h-10.9c-1.5 0-3.1 1-3.5 2.2l-3.8 10.2c-.6 1.8.5 3.2 2.6 3.2h13.6l1.4-3.8h-12c-.6.1-.9-.4-.7-1zm2.2-6c.2-.6.9-1.1 1.5-1.1h6.5c.6 0 .9.5.7 1.1l-.4 1.1h-8.7z"/><path d="m245.7 4.5-2.2 6h-7.7l2.2-6h-4.3l-5.8 15.8h4.4l2.1-6h7.7l-2.2 6h4.4l5.7-15.8z"/><path d="m178.9 6.7-4.9 13.6h4.3l3.9-10.9c.2-.6.9-1.1 1.5-1.1h7.6l1.4-3.8h-10.3c-1.5 0-3.1 1-3.5 2.2z"/><path d="m110.7 6.7-1.6 4.3c-.6 1.8.5 3.2 2.6 3.2h7.1c.6 0 .9.5.7 1.1-.2.6-.9 1.1-1.5 1.1h-10.9l-1.4 3.8h13.6c1.5 0 3.1-1 3.5-2.2l1.6-4.3c.6-1.8-.5-3.2-2.6-3.2h-7.1c-.6 0-.9-.5-.7-1.1.2-.6.9-1.1 1.5-1.1h10.9l1.4-3.8h-13.6c-1.5 0-3.1 1-3.5 2.2z"/><path d="m213.8 6.7-1.6 4.3c-.6 1.8.5 3.2 2.6 3.2h7.1c.6 0 .9.5.7 1.1-.2.6-.9 1.1-1.5 1.1h-10.9l-1.4 3.8h13.6c1.5 0 3.1-1 3.5-2.2l1.6-4.3c.6-1.8-.5-3.2-2.6-3.2h-7.1c-.6 0-.9-.5-.7-1.1.2-.6.9-1.1 1.5-1.1h10.9l1.4-3.8h-13.6c-1.5 0-3.1 1-3.5 2.2z"/><path d="m92.7 3.7c-3.1-3.2-7.3-4.3-12.7-3.3 0 0-6.4 1.5-12.2 1.6-2.4 0-4.5-.7-6.2-1.1.9 1.5 2.4 2.5 4 3.1 1.5.5 3.6 1.4 2.7 2.9-1 1.6-2.7.2-3.1-.1-1.5-1.1-2.2-2-5-3.6-3-1.8-7.3-1.8-11.5-1.4 0 0 3.5.7 5 2.3 0 0-6.7-1.4-11.1.7 6.4.2 13.4 1.2 14.6 1.8s.6.9-.5 1.2c-2.8.6-8.1.8-11.3-.1-4.6-1.3-8.6-5.2-15.3-4.2 5.9 1.2 9.1 6.8 15.5 8.1s10.8-1.2 12.3-1.6c1.4-.3 2.7.1 3.1 1.1s-.9 2.2-2.7 2.6c-1.3.2-1.7.2-4.1.5-4.9.5-8.5-.1-11.6-.9-6-1.6-10.2-5.5-12.2-6.6s-4.5-1.5-6.2-1.7c0 0 3.2 1.7 4.5 3.8-2.9-1.1-7.2-1.8-12.9-.7-3 .5-8.7 1.9-15.8 4.7 3.5 1 8 .2 10 .1 10.6-.8 14.1 1.4 17.4 2.6 10.3 3.8 13.9.5 14.6 1.6.5.8-2.8 2.1-3.7 2.3-4.6.8-6.9 0-11.2-1 2.1 2.1 6.2 3.6 10.8 3.5 4.7-.2 9.7-.9 13.6-2.6 4.6-1.9 6.6-2.6 8.7-3.2.9-.2 4.1-1.1 4.8-.2.4.5-.2.9-1.2 1.3-.8.3-1.8.7-2.8 1-2.3.9-6.5 2.4-7.9 3.6 0 0 6-.9 11.9-.9 5.8 0 9.9 1.2 14.3 2.9 4.7 1.8 8.9 1.2 12.5-1.8 3.2-2.6 4.7-5.8 4.6-9.4 0-3.5-1.3-6.4-3.7-8.9zm-8.3 18.8c-5.5 0-10-4.5-10-10s4.5-10 10-10 10 4.5 10 10-4.5 10-10 10z"/><path d="m84.4 4.6c-4.3 0-7.9 3.5-7.9 7.9s3.5 7.9 7.9 7.9 7.9-3.5 7.9-7.9-3.5-7.9-7.9-7.9zm3.7 13.1c.9-1.1 1.4-2.5 1.4-4.1 0-3.2-2.3-5.9-5.3-6.5.3-.4.6-.7.9-1.1 3.1.5 5.5 3.2 5.5 6.5 0 2.1-1 4-2.5 5.2z"/></g></svg>