<?xml version="1.0" encoding="utf-8"?><svg enable-background="new 0 0 352.3 57" viewBox="0 0 352.3 57" opacity=".5" xmlns="http://www.w3.org/2000/svg"><g fill="#0D1355" transform="matrix(1.9957809 0 0 1.9957809 -552.01818 -166.86533)"><g><path d="m296 108.1c.4 0 .8-.1 1.2-.3l4.2-2.4c.9-.5 1.8-.7 2.8-.6 5.2.6 8.8 1.6 9.8 1.9.2.1.5 0 .6-.2.2-.2.4-.6.6-1.1s.2-.9.2-1.2c0-.2-.2-.4-.4-.5-1.7-.5-9.1-2.5-19-2.5s-17.3 2-19 2.5c-.2.1-.4.3-.4.5 0 .3 0 .7.2 1.2s.4.9.6 1.1c.1.2.4.3.6.2 1.1-.3 4.7-1.3 9.8-1.9 1-.1 2 .1 2.8.6l4.2 2.4c.4.2.8.3 1.2.3z"/><path d="m288.9 94.3c.2.4.6.7 1 .8s.9.1 1.3-.2c.4-.2.7-.6.8-1s.1-.9-.2-1.3l-3.8-6.6c-.1-.2-.4-.3-.6-.3-.3 0-.7.2-1.2.5s-.9.6-1 .8-.2.4-.1.7z"/><path d="m285.4 99.1c.4.2.9.3 1.3.2s.8-.4 1-.8.3-.9.2-1.3-.4-.8-.8-1l-6.6-3.8c-.2-.1-.5-.1-.7.1-.3.2-.5.5-.8 1s-.4.9-.5 1.2c0 .3.1.5.3.6z"/><path d="m297.7 92c0 .5-.2.9-.5 1.2s-.7.5-1.2.5-.9-.2-1.2-.5-.5-.7-.5-1.2v-7.6c0-.3.2-.4.4-.5.3-.1.7-.2 1.3-.2s1 .1 1.3.2c.2.1.4.3.4.5z"/><path d="m303.1 94.3c-.2.4-.6.7-1 .8s-.9.1-1.3-.2c-.4-.2-.7-.6-.8-1s-.1-.9.2-1.3l3.8-6.6c.1-.2.4-.3.6-.3.3 0 .7.2 1.2.5s.9.6 1 .8.2.4.1.7z"/><path d="m306.6 99.1c-.4.2-.9.3-1.3.2s-.8-.4-1-.8-.3-.9-.2-1.3.4-.8.8-1l6.6-3.8c.2-.1.5-.1.7.1.3.2.5.5.8 1s.4.9.5 1.2c0 .3-.1.5-.3.6z"/></g><g><path d="m348.8 93.8h3.2c.1 0 .2.1.3.2l3.2 8.1 3.1-8.1c0-.1.2-.2.3-.2h3.1c.2 0 .3.2.3.4l-7.8 17.8c0 .1-.2.2-.3.2h-2.8c-.2 0-.3-.2-.3-.4l2.7-6.2-5.2-11.4c-.2-.2 0-.4.2-.4z"/><path d="m395.8 95.6v-1.5c0-.2.1-.3.3-.3h2.8c.2 0 .3.1.3.3v12.1c0 .2-.1.3-.3.3h-2.9c-.2 0-.3-.1-.3-.3v-1.6c-.6.9-1.9 2.2-4.1 2.2-4.1 0-6.2-3.1-6.2-6.7 0-4.6 3.2-6.5 6.2-6.5 1.9-.1 3.3.9 4.2 2zm-7 4.5c0 2.2 1.3 3.8 3.5 3.8s3.5-1.5 3.5-3.7-1.3-3.9-3.6-3.9c-2.1 0-3.4 1.7-3.4 3.8z"/><path d="m401.7 106.2v-12.1c0-.2.1-.3.3-.3h2.8c.2 0 .3.1.3.3v1.6c.7-1.1 1.9-2.2 4-2.2 2.2 0 4.6 1.1 4.6 6v6.7c0 .2-.1.3-.3.3h-2.8c-.2 0-.3-.1-.3-.3v-6.6c0-1.2-.3-3.2-2.4-3.2s-2.8 1.8-2.8 3.6v6.3c0 .2-.1.3-.3.3h-2.8c-.2-.1-.3-.3-.3-.4z"/><path d="m416.1 106.2v-12.1c0-.2.1-.3.3-.3h2.8c.2 0 .3.1.3.3v1.6c.7-1.1 1.9-2.2 4-2.2 2.2 0 4.6 1.1 4.6 6v6.7c0 .2-.1.3-.3.3h-2.8c-.2 0-.3-.1-.3-.3v-6.6c0-1.2-.3-3.2-2.4-3.2s-2.8 1.8-2.8 3.6v6.3c0 .2-.1.3-.3.3h-2.8c-.2-.1-.3-.3-.3-.4z"/><path d="m445.7 93.8h2.7c.2 0 .3.1.3.3v2.5c.5-2.5 2.7-3.3 4.2-3 .1 0 .2.1.2.3v2.8c0 .2-.2.3-.3.3-2.9-.6-4 1-4 3.2v6.1c0 .2-.1.3-.3.3h-2.8c-.2 0-.3-.1-.3-.3v-12.2c0-.1.1-.3.3-.3z"/><path d="m330.1 96.6c-.9-.3-1.3-.5-2-.7-.7-.3-1.9-1-1.9-2.1s.8-1.8 2.3-1.8c1.4 0 2.2.7 2.8 1.8.1.2.3.2.4.1l2.3-1.3c.1-.1.2-.2.1-.4-.7-1.5-2.3-3.4-5.5-3.4-3.6 0-5.8 2.1-5.8 4.9s1.8 4.2 4.3 5.1c.9.3 1.3.4 2.1.7 1.5.5 2.2 1.2 2.2 2.1s-.6 2-2.9 2c-2.1 0-2.8-1.1-3.3-2.2-.1-.2-.3-.2-.4-.1l-2.4 1.4c-.1.1-.2.2-.1.3.9 2.3 3.5 3.6 6.3 3.6 3.4 0 6.2-1.7 6.2-5.2-.1-3.3-3.8-4.5-4.7-4.8z"/><path d="m348.7 103.2c-.1-.1-.3-.2-.4-.1-1.1.8-2.4.8-3.3-.7-.8-1.3-1.8-2.8-1.8-2.8l4.3-5.3c.2-.2 0-.5-.2-.5h-3.3c-.1 0-.2 0-.2.1l-3.7 5.1v-10.2c0-.2-.1-.3-.3-.3h-2.8c-.2 0-.3.1-.3.3v17.4c0 .2.1.3.3.3h2.8c.2 0 .3-.1.3-.3v-5.6s1.9 3 2.6 4.1c1 1.5 2.3 2.1 3.8 2.1 1.4 0 2.3-.4 3.4-1.4.1-.1.1-.2.1-.3z"/><path d="m368.9 99.2c-.9-.3-1.2-.4-1.9-.7s-1.3-.6-1.3-1.2.5-1.1 1.5-1.1c.9 0 1.4.3 1.7 1 .1.2.3.2.4.1l2-1.1c.1-.1.2-.3.1-.4-.5-1-1.6-2.2-4.2-2.2-3.2 0-4.8 1.8-4.8 3.8s1.6 3 3.2 3.6c1.7.7 1.8.7 2 .8.5.2 1.2.5 1.2 1.1s-.7 1.1-1.8 1.1c-1 0-2.1-.4-2.6-1.6-.1-.2-.3-.2-.4-.1l-2 1.1c-.1.1-.2.2-.1.3.6 1.5 2.3 2.9 5.1 2.9 3 0 5-1.6 5-3.9s-1.5-2.9-3.1-3.5z"/><path d="m380.2 96.6c1.3 0 2.2.4 3.1 1 .1.1.3.1.4-.1l1.2-2c.1-.1 0-.3-.1-.4-1.2-.8-2.7-1.6-4.7-1.6s-3.8.5-5.2 1.9c-1.3 1.3-1.9 2.9-1.9 4.8 0 2.3.9 3.7 1.9 4.7s2.8 1.9 5.2 1.9c2.1 0 3.6-.9 4.7-1.6.1-.1.2-.3.1-.4l-1.1-2c-.1-.1-.3-.2-.4-.1-.8.5-1.8 1-3.1 1-1.4 0-3.9-.8-3.9-3.6s2.5-3.5 3.8-3.5z"/><path d="m437.3 103.9c-1.1 0-2.2-.3-3-.9s-1.1-1.3-1.1-2h10.1c.2 0 .3-.1.3-.3-.1-3-1-4.4-2-5.3-1-1-2.6-1.9-4.8-1.9s-3.8.8-5 1.9c-1.1 1.1-2 2.6-2 4.7s.9 3.6 1.9 4.7c1.1 1.1 2.8 1.9 5.3 1.9 2.4 0 4.4-.8 5.8-2.5.1-.1.1-.3-.1-.4l-2-1.2c-.1-.1-.2-.1-.3 0-.9 1-2.2 1.3-3.1 1.3zm-.5-7.6c1.6 0 3.1 1 3.3 2.7h-6.8c.5-1.9 1.9-2.7 3.5-2.7z"/></g></g></svg>