<?xml version="1.0" encoding="utf-8"?><svg enable-background="new 0 0 115 20" viewBox="0 0 115 20" xmlns="http://www.w3.org/2000/svg" opacity=".5"><path fill="#0d1355" clip-rule="evenodd" d="m10 19.4c5.4 0 9.7-4.3 9.7-9.7s-4.3-9.7-9.7-9.7-9.7 4.3-9.7 9.7 4.3 9.7 9.7 9.7zm0-2c4.3 0 7.7-3.5 7.7-7.7 0-4.3-3.4-7.7-7.7-7.7s-7.7 3.4-7.7 7.7 3.4 7.7 7.7 7.7z" fill-rule="evenodd"/><path d="m4.7 9.4c2.6 0 4.7-2.1 4.7-4.7s-2.1-4.7-4.7-4.7-4.7 2.1-4.7 4.7 2.1 4.7 4.7 4.7z" fill="#0d1355" opacity=".8"/><path fill="#0d1355" d="m26.9 7.2c0 .5.2.9.7 1.2s1.2.5 2.3.8c1.4.3 2.4.7 3 1.3.7.6 1 1.4 1 2.4s-.4 2-1.3 2.7c-.8.7-2 1.1-3.3 1.1-1.5 0-2.6-.4-3.5-1.1s-1.4-1.7-1.7-2.9l2-1c.4 2 1.4 2.9 3.1 2.9.7 0 1.3-.1 1.7-.5.4-.3.6-.7.6-1.2s-.2-1-.7-1.3-1.3-.6-2.3-.8c-1.2-.2-2.1-.7-2.8-1.3s-1-1.4-1-2.4.4-1.9 1.2-2.5 1.9-.9 3.1-.9c2.3 0 3.9 1.1 4.7 3.2l-1.9 1.1c-.5-1.5-1.5-2.2-2.9-2.2-.6 0-1.1.1-1.5.3-.3.3-.5.6-.5 1.1zm7.9 12.8v-12.3h2.2v1.3c.3-.4.7-.8 1.3-1.1.5-.3 1.1-.4 1.8-.4 1.1 0 2.1.4 2.9 1.3.8.8 1.2 2 1.2 3.4s-.4 2.5-1.2 3.3c-.8.9-1.8 1.3-3 1.3s-2.1-.4-2.8-1.3v4.5c-.1 0-2.4 0-2.4 0zm6.4-9.8c-.5-.5-1.1-.7-1.8-.7s-1.3.2-1.8.7-.7 1.1-.7 1.8.2 1.3.7 1.8 1.1.7 1.8.7 1.3-.2 1.8-.7.7-1.1.7-1.8-.3-1.3-.7-1.8zm11.6-1.6c1 .8 1.4 2 1.4 3.4s-.5 2.6-1.4 3.4-2.1 1.2-3.4 1.2-2.4-.4-3.4-1.2-1.4-2-1.4-3.4.5-2.6 1.4-3.4 2.1-1.2 3.4-1.2 2.5.4 3.4 1.2zm-5.1 5.3c.5.5 1.1.7 1.8.7s1.3-.2 1.8-.7.7-1.1.7-1.9-.2-1.4-.7-1.9-1.1-.7-1.8-.7-1.3.2-1.8.7-.7 1.1-.7 1.9.2 1.4.7 1.9zm13-6.4v2c-.2-.1-.8-.1-1.1-.1-.6 0-1.2.2-1.5.7-.4.5-.6 1.1-.6 1.9v4.3h-2.2v-8.6h2.2v1.3c.6-1 1.4-1.6 2.5-1.6.2 0 .4.1.7.1zm1.1.2v-2.4h2.2v2.4h1.9v1.8h-1.9v4c0 .8.4 1.2 1.1 1.2.2 0 .5 0 .7-.1l.2 1.8c-.4.2-.9.2-1.5.2-1.9 0-2.8-.9-2.8-2.8v-4.3zm7.1 2.1c0 .5.7 1 2.1 1.2 1 .2 1.8.5 2.2 1 .5.4.7 1 .7 1.7 0 .8-.3 1.5-.9 2.1-.6.5-1.5.8-2.5.8s-1.9-.2-2.5-.7c-.7-.5-1.2-1.1-1.5-1.9l1.8-1.1c.2.6.5 1 .9 1.4.4.3.8.5 1.4.5.4 0 .7-.1 1-.2s.4-.4.4-.7-.1-.5-.4-.7-.8-.3-1.4-.4c-2-.4-3-1.3-3-2.7 0-.8.3-1.4 1-1.9.6-.4 1.4-.7 2.3-.7s1.7.2 2.2.5 1 .9 1.4 1.7l-1.6 1c-.4-1-1.1-1.5-2-1.5-1.1-.2-1.6.1-1.6.6zm5.8 6.6v-12.4h2.2v4.7c.7-.9 1.7-1.3 2.9-1.3s2.2.4 3 1.2 1.2 2 1.2 3.4-.4 2.5-1.2 3.4c-.8.8-1.8 1.3-3 1.3s-2.2-.4-2.8-1.3v1.1zm2.8-2.5c.5.5 1.1.7 1.8.7s1.3-.2 1.8-.7.7-1.1.7-1.8-.2-1.4-.7-1.8c-.5-.5-1.1-.7-1.8-.7s-1.3.2-1.8.7-.7 1.1-.7 1.8.2 1.3.7 1.8zm15.9-1.3h-6.7c.1.7.3 1.2.8 1.6.4.4 1 .6 1.6.6 1.1 0 1.9-.5 2.4-1.6l1.7 1c-.8 1.7-2.2 2.6-4.1 2.6-1.2 0-2.3-.4-3.2-1.3s-1.3-2-1.3-3.3c0-1.4.4-2.5 1.3-3.3.9-.9 2-1.3 3.3-1.3 1.2 0 2.3.4 3.1 1.2s1.2 1.9 1.2 3.1c-.1-.1-.1.7-.1.7zm-4.3-3.5c-.6 0-1.1.2-1.5.5s-.7.8-.9 1.3h4.7c-.1-.6-.4-1-.8-1.4-.4-.2-.9-.4-1.5-.4zm5-1.4v-2.4h2.2v2.4h1.9v1.8h-1.9v4c0 .8.4 1.2 1.1 1.2.2 0 .5 0 .7-.1l.2 1.8c-.4.2-.9.2-1.5.2-1.9 0-2.8-.9-2.8-2.8v-4.3zm6.2 8.7c.6 0 1.2-.5 1.2-1.2 0-.6-.5-1.2-1.2-1.2-.6 0-1.2.5-1.2 1.2s.5 1.2 1.2 1.2zm2.1 0v-8.7h2.2v8.7zm11.1-7.8c1 .8 1.4 2 1.4 3.4s-.5 2.6-1.4 3.4-2.1 1.2-3.4 1.2-2.4-.4-3.4-1.2c-.9-.8-1.4-2-1.4-3.4s.5-2.6 1.4-3.4 2.1-1.2 3.4-1.2c1.4 0 2.5.4 3.4 1.2zm-5.1 5.3c.5.5 1.1.7 1.8.7s1.3-.2 1.8-.7.7-1.1.7-1.9-.2-1.4-.7-1.9-1.1-.7-1.8-.7-1.3.2-1.8.7-.7 1.1-.7 1.9.2 1.4.7 1.9z"/><path d="m102.3 5.2c0 .7.5 1.2 1.2 1.2s1.2-.5 1.2-1.2-.6-1.2-1.2-1.2c-.7 0-1.2.6-1.2 1.2z" fill="#0d1355"/></svg>