<?xml version="1.0" encoding="utf-8"?><svg enable-background="new 0 0 2279.4 687.8" viewBox="0 0 2279.4 687.8" xmlns="http://www.w3.org/2000/svg" opacity=".5"><g clip-rule="evenodd"><path d="m-110.3-906.1h2500v2500h-2500v-2500z" fill="none"/><g fill="#0d1355" fill-rule="evenodd"><path d="m2075 130.8c-12.2 0-14.8 5.8-14.8 14.8v4.6h17.4v18h-17.4v81.8h-26.4v-81.8h-10.9v-18h10.9v-7.1c0-20 12.9-31 34.8-31 4.5 0 7.7 0 11.6.7v18zm165.1 421.5v-123.1c0-15.5-8.4-28.4-29-28.4-11.6 0-20 3.3-27.1 10.3 1.9 5.8 2.6 11.6 2.6 23.9v117.3h-39.3v-123.1c0-14.2-3.9-29-29-29-12.8 0-17.4 2-24.4 5.2v146.9h-39.3v-162.4c14.9-6.5 36.1-14.2 65.7-14.2 24.5 0 40.6 5.8 50.3 14.2 11.6-8.4 27.1-14.2 49.6-14.2 41.2 0 59.2 23.9 59.2 53.5v123.1zm-412-262.3c-14.9 0-26.4-3.2-34.2-7.1l5.8-15.4c7.7 3.5 16.1 5.3 24.5 5.2 16.7 0 21.9-7.8 21.9-20.6v-6.5c-3.2 1.9-9.6 4.5-20.6 4.5-24.5 0-35.5-12.2-35.5-32.2v-67.7h26.4v66.4c0 9 3.2 16.1 16.1 16.1 6.4 0 10.3-1.9 13.5-3.2v-79.2h26.5v96c.1 31.4-18.6 43.7-44.4 43.7zm-70.5-38.6c-19.4 0-29-10.3-29-27.1v-56.1h-11v-18h11v-20.6l26.4-7v27.7h16.1v18h-16.1v53.5c0 9 4.5 11.6 10.9 11.6 3.3 0 5.8 0 9-.6v16.7c-2.5.5-7.7 1.9-17.3 1.9zm-84.2-1.4v-99.9h26.4v99.9zm-54.6 2c-12.9 0-23.2-3.2-31-7.1l6.5-16.8c5.2 2.6 12.3 5.8 20.6 5.8 9.6 0 15.4-3.2 15.4-11 0-7.1-4.5-10.3-16.1-14.8-19.3-7.7-23.2-19.3-23.2-30.3 0-16.1 12.2-29.6 34.1-29.6 12.2 0 21.2 3.2 28.4 7.1l-7.1 15.5c-5.5-3.2-11.7-5-18-5.2-9 0-13.5 3.9-13.5 10.3 0 7.1 7.1 9.7 16.1 13.5 20 7.7 24.5 19.3 24.5 31.6.1 18.1-14.7 31-36.7 31zm-39.3-83.8c-1.9-.6-7.8-1.3-12.3-1.3s-8.4.6-11 1.3v81.8h-26.4v-94.1c3.9-1.9 19.4-7.1 36.7-7.1 10.3 0 12.9.6 16.8 1.3zm250.1 384.1v-120.5c0-16.7-7.1-29-29-29-12.3 0-20.6 3.2-29 8.4v141.2h-39.3v-232h39.3v64.5c10.3-4.5 25.1-7.8 38.7-7.8 43.2 0 58.6 25.8 58.6 52.2v123.1zm-527.1-414.4c-9.7 0-14.2-5.8-14.2-12.9s4.5-12.9 14.2-12.9c9 0 14.2 5.8 14.2 12.9s-5.1 12.9-14.2 12.9zm85.1 112.1h-25.1l-34.2-99.9h28.4l12.9 47c1.3 4.5 4.5 16.1 5.8 21.9h.6c.6-5.8 3.9-17.4 5.1-21.9l13.6-47h26.4zm-98.8 0v-99.9h26.4v99.9zm398.4-112.1c-9.7 0-14.2-5.8-14.2-12.9s4.5-12.9 14.2-12.9c9 0 14.2 5.8 14.2 12.9s-5.1 12.9-14.2 12.9zm-444.1 112.1v-70.2c0-7.1-3.2-14.2-16.1-14.2-6.4 0-10.3 1.3-13.5 2.6v81.8h-26.4v-94.1c11-4.5 24.5-7.7 41.3-7.7 30.3 0 41.3 14.8 41.3 31.6v70.2zm109.9 107c-14.8 0-22.5-9.7-22.5-20.6s7.7-20.6 22.5-20.6c14.2 0 22.5 9.7 22.5 20.6s-8.3 20.6-22.5 20.6zm144.1 195.3v-123.1c0-14.2-5.8-29-31-29-12.9 0-19.3 2-26.4 5.2v146.9h-39.3v-162.4c21.3-9.4 44.4-14.2 67.7-14.2 51.5 0 68.3 25.1 68.3 52.9v123.7zm-373.7-300.3c-25.8 0-45.1-13.5-45.1-40v-89h27.7v89c0 12.2 6.4 18.7 17.4 18.7 10.9 0 17.4-6.5 17.4-18.7v-89h27.7v89c0 26.4-19.3 40-45.1 40zm210 300.3v-173.4h39.4v173.4zm-49.3 1.9c-34.1 0-47.7-19.3-47.7-47v-103.1h-19.3v-25.1h19.3v-34.8l39.3-10.9v45.7h27.7v25.1h-27.7v103.1c0 15.5 8.4 20 19.4 20 3.2 0 7.7 0 11.6-.6v25.8c-3.9.5-14.2 1.8-22.6 1.8zm-102.5 0c-34.1 0-47.7-19.3-47.7-47v-103.1h-19.3v-25.1h19.3v-34.8l39.4-10.9v45.7h27.7v25.1h-27.7v103.1c0 15.5 8.3 20 19.4 20 3.2 0 7.7 0 11.6-.6v25.8c-3.9.5-14.3 1.8-22.7 1.8zm-283.8-304.2v-70.2c0-7.7-3.8-14.2-15.4-14.2-6.5 0-10.3 1.9-14.2 3.9v80.5h-26.4v-136h26.4v38.7c3.8-1.9 11.6-4.5 20-4.5 26.4 0 36.1 15.5 36.1 30.9v70.9zm-96-106.3v106.3h-27.8v-106.3h-25.8v-20.6h79.9v20.6zm-451.2-28.4v-59.2c29 7.1 50.3 16.8 72.8 29.1v55.4c-22.5-10.4-47-19.4-72.8-25.3zm549.1 437-82.5-139.2c-5.1-8.4-9-16.8-13.5-27.1h-.6c1.3 10.9 1.9 20 1.9 28.4v137.9h-38v-221.1h40.6l76.7 130.2c4.5 7.7 8.4 14.8 12.3 25.1h.6c-1.3-10.9-1.3-18.7-1.3-26.4v-128.9h38v221.1zm-591.7-138.6 3.9-121.1c0-7.7 5.8-13.5 12.9-13.5 7.8 0 12.9 5.8 12.9 13.5l4.6 121.1zm16.8 231.4c-41.9 0-70.9-12.2-104.4-29.6-29.6-15.4-58.6-25.1-96.7-25.1-35.4 0-78 9-123.7 37.4 38-56.7 88.3-73.5 135.3-73.5 50.3 0 89.6 15.5 125 33.5 32.9 16.7 58.6 25.1 94.7 25.1 30.3 0 63.8-8.4 95.4-34.8-39.2 51.5-85 67-125.6 67zm1642.5-496.9c-29.6 0-43.8 21.9-43.8 51.6 0 30.3 14.2 52.2 43.8 52.2s43.9-21.9 43.9-52.2c0-29.7-14.2-51.6-43.9-51.6zm0 86.4c-13.6 0-16.7-15.4-16.7-34.8 0-18.7 3.2-34.1 16.7-34.1 13.6 0 16.8 15.5 16.8 34.1 0 19.3-3.2 34.8-16.8 34.8zm-6.9 141.1c-27.1 0-47.7 7.7-59.3 12.9l9 23.9c10.4-5.2 26.4-11 43.2-11 20.6 0 34.1 5.8 34.1 28.4v9.7c-3.2-.6-14.8-2.6-25.1-2.6-40 0-72.2 20.6-72.2 61.9 0 33.5 22.5 58.6 71.5 58.6 27.1 0 49-5.1 63.8-12.2v-109c.1-45.1-29-60.6-65-60.6zm27 154.7c-7.4 2.9-15.2 4.4-23.2 4.5-20.6 0-34.8-13.5-34.8-37.4 0-22.5 12.3-38 36.1-38 10.9 0 18 1.9 21.9 2.6zm-474.3-332.6c0-31.5-16.1-49.6-43.2-49.6-27.7 0-44.4 19.3-44.4 51.6 0 33.5 18.7 52.2 48.3 52.2 15.5 0 27.1-3.2 35.4-7.7l-6.4-17.4c-8.2 4-17.2 6-26.4 5.8-12.3 0-23.2-5.1-25.2-24.5h61.9zm-25.2-6.4h-37.3c0-19.3 7.7-26.4 18.7-26.4 10.3 0 18.7 6.5 18.7 25.2zm156.7 184.3c-56.1 0-83.8 35.4-83.8 91.5 0 54.1 27.7 86.3 69.6 86.3 15.4 0 27.1-2.5 34.1-6.4v11c0 23.2-12.2 38-41.2 38-19.3 0-31.6-5.1-41.9-9.6l-10.9 24.5c12.9 7.1 33.5 12.8 59.9 12.8 43.2 0 72.8-23.8 72.8-69.6v-166.3c-11.6-6.4-32.2-12.2-58.6-12.2zm19.9 146.3c-6.9 3.8-14.6 5.8-22.5 5.8-27.7 0-40-20.6-40-60.6 0-41.3 12.9-67.1 41.9-67.1 8.4 0 14.9.6 20.6 3.9zm-640-324.2c0-31.5-16.1-49.6-43.2-49.6-27.7 0-44.5 19.3-44.5 51.6 0 33.5 18.7 52.2 48.3 52.2 15.4 0 27.1-3.2 35.5-7.7l-6.5-17.4c-8.2 4-17.3 6-26.4 5.8-12.2 0-23.2-5.1-25.1-24.5h61.9zm-25.1-6.4h-37.4c0-19.3 7.8-26.4 18.7-26.4 10.3 0 18.7 6.5 18.7 25.2zm31.4 184.3c-49 0-73.4 37.4-73.4 90.2 0 52.2 24.5 89.6 73.4 89.6 49 0 73.5-37.4 73.5-89.6 0-52.8-24.5-90.2-73.5-90.2zm2.5 156c-27.1 0-31.6-34.8-31.6-65.7 0-31.6 4.5-66.3 31.6-66.3s31.6 34.8 31.6 66.3c0 30.9-4.5 65.7-31.6 65.7z"/><path d="m350.6 128.2c-15.5-3.9-32.2-6.4-49-8.4v-74c-18.6-2.6-37.3-3.9-56.1-3.9-18.1 0-36.1 1.3-53.5 3.2v70.2c-16.8 2-32.9 5.2-48.4 9v-69.5c-27.2 7.5-53.4 18.4-78 32.2v144.4l32.9 31.6-9.7 162.4-26.4 26.4v94.1l9 9.7c21.9-11.6 49.6-21.3 83.1-21.3 32.2 0 69.6 9 111.5 32.2v-119.9l-17.4-22v-166.2l34.2-52.9-14.2 50.9c9.8-1.3 19.7-1.9 29.7-1.9 33.5 0 64.4 5.8 90.9 16.1l34.1-31.6v-85.7c-22.4-10.2-46.9-18.6-72.7-25.1zm-205 285.5 3.9-121.1c0-7.7 5.8-13.5 12.9-13.5s12.9 5.8 12.9 13.5l4.5 121.1zm457.8-413.7h-17v687.8h24.5v-687.8z"/></g></g></svg>