<?xml version="1.0" encoding="utf-8"?><svg enable-background="new 0 0 600 200.3" fill="#0d1355" opacity=".5" viewBox="0 0 600 200.3" xmlns="http://www.w3.org/2000/svg"><path d="m0 0h600v200h-600z"/><g fill="#fff"><path d="m446.1 200v-145.7h49.3v114.8h64v31.2"/><path d="m302 200.2c-21.8-15.7-32.1-42-32.1-67.2 0-41.7 28-84.4 81-84.4 23.6 0 46.1 8.3 62.6 25 6.6 6.9 9.8 12 13 18.2l-41.5 20.4c-3.9-9.3-11.5-25.8-32.4-25.8-10.8 0-17.7 5.2-21.1 8.3-11.8 11.3-11.8 28.9-11.8 35.1 0 23.1 8.6 44.9 32.9 44.9 23.1 0 29.9-20.4 31.6-25.5l42 20.4c-3.9 7.4-7.9 14.5-15.2 22.1-3.2 3.2-6.6 5.9-10.3 8.3"/><path d="m132 200.2c-2.2-1.5-3.9-2.9-5.9-4.7-15.5-15-15.7-32.4-16.2-48.6v-92.4h49.6v97.1c0 6.6.2 13.5 5.6 18.6 3.9 4.2 10.1 5.6 15.7 5.6 7.9 0 12.8-2.9 15.7-5.4 5.6-5.4 5.9-12.3 5.9-18.9v-97h49.8v82.7c0 17.9 0 41-18.4 58.4-1.7 1.7-3.7 3.2-5.9 4.7"/><path d="m84.9 89.4-26.7-5.6s-26.5 5.6-26.7 5.6 0 .2 0 .2l.2 1.5s.5 0 .7.2l.5 2.2s0 .2.2.2 1 0 1 0h48.4 1s.2 0 .2 0l.5-2.2c.2-.5.7-.5.7-.5l.2-1.5s0 0 0-.2z"/><path d="m82.2 94.3v-.8h-4.2v.7h.2v.2s0 .7.5 1v.2s0 0-.2 0v.2.2 15l-.2.2v.2h-.2v.5h3.9v-.5h-.2l-.2-.2v-15-.2-.2s-.2-.2 0-.2c.5-.2.5-.7.5-1v-.1h.2v-.2z"/><path d="m73.4 94.3v-.8h-4.2v.7h.3v.2s0 .7.5 1v.2s0 0-.2 0v.2.2 15l-.2.2v.2h-.2v.5h3.9v-.5h-.2l-.2-.2v-15-.2-.2s-.2-.2 0-.2c.5-.2.5-.7.5-1v-.1h.2v-.2z"/><path d="m64.8 94.3v-.8h-4.2v.7h.2v.2s0 .7.5 1v.2s0 0-.2 0v.2.2 15l-.2.2v.2h-.2v.5h3.9v-.5h-.2l-.2-.2v-15-.2-.2s0 0-.2 0c0 0-.2-.2 0-.2.2-.2.5-.7.5-1v-.1h.2z"/><path d="m56 94.3v-.8h-4.2v.7h.2v.2s0 .7.5 1v.2s0 0-.2 0v.2.2 15l-.2.2v.2h-.2v.5h3.9v-.5h-.3l-.2-.2v-15-.2-.2s-.2-.2 0-.2c.5-.2.5-.7.5-1v-.1h.2z"/><path d="m47.2 94.3v-.8h-4.2v.7h.2v.2s0 .7.5 1v.2s0 0-.2 0v.2.2 15l-.2.2v.2h-.2v.5h3.9v-.5h-.2l-.2-.2v-15-.2-.2s0 0-.2 0c0 0-.2-.2 0-.2.5-.2.5-.7.5-1v-.1h.2z"/><path d="m38.6 94.3v-.8h-4.2v.7h.2v.2s0 .7.5 1v.2s0 0-.2 0v.2.2 15l-.2.2v.2h-.2v.5h3.9v-.5h-.2l-.2-.2v-15-.2-.2s0 0-.2 0c0 0-.2-.2 0-.2.2-.2.5-.7.5-1v-.1h.2z"/><path d="m70.7 78.3s-.2 0-.5 0 0-.2 0-.5-.2 0-.5 0v-.5h-.2s-.2 0-.2-.2c0-.5.2-4.7-2-7.4-1.7-2.5-3.9-3.7-5.2-4.4 0-.5-.7-.7-1.2-1-.2 0-.2-.2-.2-.2v-.2c0-.2.2-.2.5-.2h.2v-.5s0-.2-.2-.2-.2 0-.5 0c0 0-.2 0-.2-.2 0 0 0 0 0-.2s0-.2-.2-.2v-2.9h.2v-.2h-.2s0 0 0-.2 0-.2 0-.2v-.5h-.2s0 0-.2 0c-.5-.5-1-1-1-1s0-.2-.2-.2 0-.2 0-.2 0 0 0-.2l-.2-.5s-.2.2-.2.5v.2.2c-.2 0-.2 0-.2.2s-.5.7-1 1c0 0 0 0-.2 0h-.2v.2.2s0 .2 0 .2h-.2v.2h.2v2.9l-.2.2v.2s0 .2-.2.2c0 0-.2 0-.5 0 0 0-.2 0-.2.2v.5h.2s.5 0 .5.2v.2c0 .2-.2.2-.2.2-.2 0-1 .2-1.2 1-1.2.5-3.7 2-5.2 4.4-2.2 2.9-2 6.9-2 7.4 0 0 0 .2-.2.2h-.2v.5h-.5v.5h-.5v.5c.2 0 .5.2.5.5 0 .5.2.5.5.5v1.7c0 .5-.2.5-.5.5v1.7l12.3-2.7 12.3 2.7v-1.7c-.2 0-.5-.2-.5-.5v-1.7s.5 0 .5-.5c0-.2.2-.5.5-.5 0-.2 0-.5 0-.5z"/><path d="m84.2 113.9h-2v-1.5h-47.8v1.5h-2v3.7h-2.2v3.4h56.2v-3.4h-2.2z"/></g></svg>